<?xml version="1.0" encoding="UTF-8" standalone="no"?>
<!-- Created with Inkscape (http://www.inkscape.org/) -->

<svg
   version="1.1"
   id="svg1"
   width="1367"
   height="534"
   viewBox="0 0 1367 533.99999"
   sodipodi:docname="logo_rizu.svg"
   inkscape:version="1.4 (e7c3feb100, 2024-10-09)"
   inkscape:export-filename="/media/SSD/Dev/website/static/images/home/rizu.svg"
   inkscape:export-xdpi="96"
   inkscape:export-ydpi="96"
   xmlns:inkscape="http://www.inkscape.org/namespaces/inkscape"
   xmlns:sodipodi="http://sodipodi.sourceforge.net/DTD/sodipodi-0.dtd"
   xmlns="http://www.w3.org/2000/svg"
   xmlns:svg="http://www.w3.org/2000/svg">
  <defs
     id="defs1" />
  <sodipodi:namedview
     id="namedview1"
     pagecolor="#ffffff"
     bordercolor="#000000"
     borderopacity="0.25"
     inkscape:showpageshadow="2"
     inkscape:pageopacity="0.0"
     inkscape:pagecheckerboard="0"
     inkscape:deskcolor="#d1d1d1"
     showgrid="false"
     inkscape:zoom="0.35355339"
     inkscape:cx="913.58196"
     inkscape:cy="618.01133"
     inkscape:window-width="1900"
     inkscape:window-height="1030"
     inkscape:window-x="0"
     inkscape:window-y="0"
     inkscape:window-maximized="1"
     inkscape:current-layer="g1">
    <inkscape:page
       x="0"
       y="0"
       width="1367"
       height="534"
       id="page2"
       margin="0"
       bleed="0" />
  </sodipodi:namedview>
  <g
     inkscape:groupmode="layer"
     inkscape:label="Image"
     id="g1">
    <g
       id="g52"
       inkscape:label="R"
       transform="translate(-681.97429,-1088.4371)"
       style="fill-opacity:1;fill:#000000">
      <rect
         style="display:inline;fill-opacity:1;stroke-width:3.08699;paint-order:markers stroke fill;fill:#000000"
         id="rect53-2"
         width="85.984222"
         height="39.421478"
         x="681.98102"
         y="1582.6616"
         ry="10.766113" />
      <path
         id="path7"
         style="display:inline;fill-opacity:1;stroke-width:6.04724;stroke-opacity:0.265116;paint-order:markers stroke fill;fill:#000000"
         d="m 968.02507,1109.4781 c 0,0 -286.43782,-20.2027 -286.05078,236.3457 0.38704,256.5484 0,256.6797 0,256.6797 l 85.99023,-0.1309 -0.7539,-243.3144 c 0,0 -3.06884,-204.7962 200.81445,-206.25 z" />
      <path
         style="fill-opacity:1;stroke-width:6.12241;stroke-opacity:0.265116;paint-order:markers stroke fill;fill:#000000"
         d="m 967.69694,1109.4781 c 0,0 13.44562,-1.5951 13.44562,20.6785 0,22.2737 -13.44562,22.6516 -13.44562,22.6516 z"
         id="path19" />
    </g>
    <g
       id="g54"
       inkscape:label="I"
       transform="translate(-681.97429,-1087.75)"
       style="fill-opacity:1;fill:#000000">
      <circle
         style="fill-opacity:1;stroke-width:10.5674;paint-order:markers stroke fill;fill:#000000"
         id="path53"
         cx="1109"
         cy="1131"
         r="43.25" />
      <rect
         style="fill-opacity:1;stroke-width:9.34107;paint-order:markers stroke fill;fill:#000000"
         id="rect53"
         width="85.559921"
         height="362.74579"
         x="1066.317"
         y="1258.6501"
         ry="10.5" />
    </g>
    <g
       id="g55"
       inkscape:label="Z"
       transform="translate(-681.97429,-1088.3301)"
       style="fill-opacity:1;fill:#000000">
      <rect
         style="display:inline;fill-opacity:1;stroke-width:15.3674;paint-order:markers stroke fill;fill:#000000"
         id="rect54"
         width="342.5"
         height="43.663582"
         x="1237.0745"
         y="1109.0487"
         ry="10.960155" />
      <rect
         style="display:inline;fill-opacity:1;stroke-width:15.3674;paint-order:markers stroke fill;fill:#000000"
         id="rect54-5"
         width="342.5"
         height="43.663582"
         x="1236.875"
         y="1578.3125"
         ry="10.960155" />
      <rect
         style="fill-opacity:1;stroke-width:8.14337;paint-order:markers stroke fill;fill:#000000"
         id="rect54-5-0-6"
         width="48.5797"
         height="86.443542"
         x="1117.4623"
         y="-1579.5745"
         ry="0"
         transform="rotate(90)"
         rx="0" />
      <rect
         style="display:inline;fill-opacity:1;stroke-width:8.14337;paint-order:markers stroke fill;fill:#000000"
         id="rect54-5-0-6-1"
         width="48.5797"
         height="86.443542"
         x="1554.0227"
         y="-1323.3186"
         ry="0"
         transform="rotate(90)"
         rx="0" />
      <path
         id="path57"
         style="display:inline;fill-opacity:1;stroke:none;stroke-width:6.04724;stroke-opacity:0.265116;paint-order:markers stroke fill;fill:#000000"
         d="m 1546.5293,1118.8535 c -2.9402,0.4138 -5.895,0.7345 -8.8496,1.0156 -3.2044,0.2976 -6.4188,0.4435 -9.6348,0.5528 -18.4976,18.7772 -34.914,45.6211 -34.914,45.6211 0,0 0.2787,125.1331 -86.6954,176.7519 -86.9742,51.6188 -166.5868,83.0442 -169.5605,211.2285 -2.9737,128.1843 86.4434,0 86.4434,0 0,0 -6.6847,-107.2825 94.4316,-168.0937 101.1163,-60.8112 161.8242,-77.0282 161.8242,-219.8867 0,-21.7192 -2.0196,-36.7583 -5.4082,-46.7754 -0.3139,0.018 -0.6273,0.042 -0.9414,0.057 -1.3898,0.051 -2.7809,0 -4.1719,-0.012 -1.3862,0.284 -2.7418,0.689 -4.082,1.1484 -1.5913,0.5692 -3.0996,1.3657 -4.6855,1.9551 v 0 c -4.3576,1.6195 -6.9991,-0.6492 -6.3887,-3.1055 -0.3638,-0.015 -0.7281,-0.014 -1.0918,-0.031 -2.0933,-0.1209 -4.1835,-0.282 -6.2754,-0.4219 z" />
    </g>
    <g
       inkscape:groupmode="layer"
       id="layer1"
       inkscape:label="U"
       transform="translate(0,0.51818848)"
       style="fill:#ffffff;fill-opacity:1">
      <rect
         style="fill-opacity:1;stroke-width:26.3802;paint-order:markers stroke fill;fill:#000000"
         id="rect54-5-9"
         width="85.917068"
         height="512.92731"
         x="1280.5427"
         y="20.200441"
         ry="10.860995" />
      <rect
         style="fill-opacity:1;stroke-width:18.9835;paint-order:markers stroke fill;fill:#000000"
         id="rect54-5-9-2"
         width="85.917068"
         height="265.61227"
         x="982.0257"
         y="20.200441"
         ry="10.669271" />
      <path
         style="fill-opacity:1;stroke:none;stroke-width:6.04724;stroke-opacity:0.265116;paint-order:markers stroke fill;fill:#000000"
         d="m 1067.9429,271.56287 v 31.5 c 0,0 -15.4171,187 167.0829,187 182.5,0 88.4755,43.0649 88.4755,43.0649 h -101.4755 c 0,0 -242.00005,8.4351 -241.00005,-221.5649 1,-230 1,-233 1,-233 l 85.91715,4 z"
         id="path56" />
      <rect
         style="fill-opacity:1;stroke:none;stroke-width:6.04724;stroke-opacity:0.265116;paint-order:markers stroke fill;fill:#000000"
         id="rect56"
         width="73.75"
         height="21.75"
         x="1235.0258"
         y="490.06284"
         ry="2.8440409e-14" />
    </g>
  </g>
</svg>
