<svg width="466" height="122" viewBox="0 0 466 122" fill="none" xmlns="http://www.w3.org/2000/svg">
<path d="M176.34 34.792C179.329 35.3493 181.787 36.844 183.712 39.276C185.637 41.708 186.6 44.4947 186.6 47.636C186.6 50.4733 185.891 52.9813 184.472 55.16C183.104 57.288 181.103 58.96 178.468 60.176C175.833 61.392 172.717 62 169.12 62H146.244V8.95199H168.132C171.729 8.95199 174.82 9.53465 177.404 10.7C180.039 11.8653 182.015 13.4867 183.332 15.564C184.7 17.6413 185.384 19.9973 185.384 22.632C185.384 25.7227 184.548 28.3067 182.876 30.384C181.255 32.4613 179.076 33.9307 176.34 34.792ZM156.884 30.84H166.612C169.145 30.84 171.096 30.2827 172.464 29.168C173.832 28.0027 174.516 26.356 174.516 24.228C174.516 22.1 173.832 20.4533 172.464 19.288C171.096 18.1227 169.145 17.54 166.612 17.54H156.884V30.84ZM167.6 53.336C170.184 53.336 172.185 52.728 173.604 51.512C175.073 50.296 175.808 48.5733 175.808 46.344C175.808 44.064 175.048 42.2907 173.528 41.024C172.008 39.7067 169.956 39.048 167.372 39.048H156.884V53.336H167.6Z" fill="black"/>
<path d="M211.192 62.684C207.747 62.684 204.656 62.076 201.92 60.86C199.184 59.5933 197.005 57.896 195.384 55.768C193.813 53.64 192.952 51.284 192.8 48.7H203.516C203.719 50.3213 204.504 51.664 205.872 52.728C207.291 53.792 209.039 54.324 211.116 54.324C213.143 54.324 214.713 53.9187 215.828 53.108C216.993 52.2973 217.576 51.2587 217.576 49.992C217.576 48.624 216.867 47.6107 215.448 46.952C214.08 46.2427 211.876 45.4827 208.836 44.672C205.695 43.912 203.111 43.1267 201.084 42.316C199.108 41.5053 197.385 40.264 195.916 38.592C194.497 36.92 193.788 34.6653 193.788 31.828C193.788 29.4973 194.447 27.3693 195.764 25.444C197.132 23.5186 199.057 21.9986 201.54 20.884C204.073 19.7693 207.037 19.212 210.432 19.212C215.448 19.212 219.451 20.4787 222.44 23.012C225.429 25.4947 227.076 28.864 227.38 33.12H217.196C217.044 31.448 216.335 30.1307 215.068 29.168C213.852 28.1547 212.205 27.648 210.128 27.648C208.203 27.648 206.708 28.0027 205.644 28.712C204.631 29.4213 204.124 30.4093 204.124 31.676C204.124 33.0947 204.833 34.184 206.252 34.944C207.671 35.6533 209.875 36.388 212.864 37.148C215.904 37.908 218.412 38.6933 220.388 39.504C222.364 40.3147 224.061 41.5813 225.48 43.304C226.949 44.976 227.709 47.2053 227.76 49.992C227.76 52.424 227.076 54.6027 225.708 56.528C224.391 58.4533 222.465 59.9733 219.932 61.088C217.449 62.152 214.536 62.684 211.192 62.684Z" fill="black"/>
<path d="M233.758 40.948C233.758 36.5907 234.645 32.7907 236.418 29.548C238.191 26.2547 240.649 23.7213 243.79 21.948C246.931 20.124 250.529 19.212 254.582 19.212C259.801 19.212 264.107 20.5293 267.502 23.164C270.947 25.748 273.253 29.396 274.418 34.108H262.942C262.334 32.284 261.295 30.8653 259.826 29.852C258.407 28.788 256.634 28.256 254.506 28.256C251.466 28.256 249.059 29.3707 247.286 31.6C245.513 33.7787 244.626 36.8947 244.626 40.948C244.626 44.9507 245.513 48.0667 247.286 50.296C249.059 52.4747 251.466 53.564 254.506 53.564C258.813 53.564 261.625 51.6387 262.942 47.788H274.418C273.253 52.348 270.947 55.9707 267.502 58.656C264.057 61.3413 259.75 62.684 254.582 62.684C250.529 62.684 246.931 61.7973 243.79 60.024C240.649 58.2 238.191 55.6667 236.418 52.424C234.645 49.1307 233.758 45.3053 233.758 40.948Z" fill="black"/>
<path d="M300.529 62.532C296.83 62.532 293.486 61.8987 290.497 60.632C287.558 59.3653 285.228 57.5413 283.505 55.16C281.782 52.7787 280.896 49.9667 280.845 46.724H292.245C292.397 48.9027 293.157 50.6253 294.525 51.892C295.944 53.1587 297.869 53.792 300.301 53.792C302.784 53.792 304.734 53.2093 306.153 52.044C307.572 50.828 308.281 49.2573 308.281 47.332C308.281 45.7613 307.8 44.4693 306.837 43.456C305.874 42.4427 304.658 41.6573 303.189 41.1C301.77 40.492 299.794 39.8333 297.261 39.124C293.816 38.1107 291.004 37.1227 288.825 36.16C286.697 35.1467 284.848 33.652 283.277 31.676C281.757 29.6493 280.997 26.964 280.997 23.62C280.997 20.4787 281.782 17.7427 283.353 15.412C284.924 13.0813 287.128 11.308 289.965 10.092C292.802 8.82532 296.045 8.19199 299.693 8.19199C305.165 8.19199 309.598 9.53465 312.993 12.22C316.438 14.8547 318.338 18.5533 318.693 23.316H306.989C306.888 21.492 306.102 19.9973 304.633 18.832C303.214 17.616 301.314 17.008 298.933 17.008C296.856 17.008 295.184 17.54 293.917 18.604C292.701 19.668 292.093 21.2133 292.093 23.24C292.093 24.6587 292.549 25.8493 293.461 26.812C294.424 27.724 295.589 28.484 296.957 29.092C298.376 29.6493 300.352 30.308 302.885 31.068C306.33 32.0813 309.142 33.0947 311.321 34.108C313.5 35.1213 315.374 36.6413 316.945 38.668C318.516 40.6947 319.301 43.3547 319.301 46.648C319.301 49.4853 318.566 52.12 317.097 54.552C315.628 56.984 313.474 58.9347 310.637 60.404C307.8 61.8227 304.43 62.532 300.529 62.532Z" fill="black"/>
<path d="M325.789 40.948C325.789 36.5907 326.676 32.7907 328.449 29.548C330.223 26.2547 332.68 23.7213 335.821 21.948C338.963 20.124 342.56 19.212 346.613 19.212C351.832 19.212 356.139 20.5293 359.533 23.164C362.979 25.748 365.284 29.396 366.449 34.108H354.973C354.365 32.284 353.327 30.8653 351.857 29.852C350.439 28.788 348.665 28.256 346.537 28.256C343.497 28.256 341.091 29.3707 339.317 31.6C337.544 33.7787 336.657 36.8947 336.657 40.948C336.657 44.9507 337.544 48.0667 339.317 50.296C341.091 52.4747 343.497 53.564 346.537 53.564C350.844 53.564 353.656 51.6387 354.973 47.788H366.449C365.284 52.348 362.979 55.9707 359.533 58.656C356.088 61.3413 351.781 62.684 346.613 62.684C342.56 62.684 338.963 61.7973 335.821 60.024C332.68 58.2 330.223 55.6667 328.449 52.424C326.676 49.1307 325.789 45.3053 325.789 40.948Z" fill="black"/>
<path d="M371.508 40.796C371.508 36.54 372.344 32.7653 374.016 29.472C375.739 26.1787 378.044 23.6453 380.932 21.872C383.871 20.0987 387.139 19.212 390.736 19.212C393.877 19.212 396.613 19.8453 398.944 21.112C401.325 22.3787 403.225 23.9747 404.644 25.9V19.896H415.36V62H404.644V55.844C403.276 57.82 401.376 59.4667 398.944 60.784C396.563 62.0507 393.801 62.684 390.66 62.684C387.113 62.684 383.871 61.772 380.932 59.948C378.044 58.124 375.739 55.5653 374.016 52.272C372.344 48.928 371.508 45.1027 371.508 40.796ZM404.644 40.948C404.644 38.364 404.137 36.16 403.124 34.336C402.111 32.4613 400.743 31.0427 399.02 30.08C397.297 29.0667 395.448 28.56 393.472 28.56C391.496 28.56 389.672 29.0413 388 30.004C386.328 30.9667 384.96 32.3853 383.896 34.26C382.883 36.084 382.376 38.2627 382.376 40.796C382.376 43.3293 382.883 45.5587 383.896 47.484C384.96 49.3587 386.328 50.8027 388 51.816C389.723 52.8293 391.547 53.336 393.472 53.336C395.448 53.336 397.297 52.8547 399.02 51.892C400.743 50.8787 402.111 49.46 403.124 47.636C404.137 45.7613 404.644 43.532 404.644 40.948Z" fill="black"/>
<path d="M449.084 19.288C454.1 19.288 458.153 20.884 461.244 24.076C464.335 27.2173 465.88 31.6253 465.88 37.3V62H455.24V38.744C455.24 35.4 454.404 32.8413 452.732 31.068C451.06 29.244 448.78 28.332 445.892 28.332C442.953 28.332 440.623 29.244 438.9 31.068C437.228 32.8413 436.392 35.4 436.392 38.744V62H425.752V19.896H436.392V25.14C437.811 23.316 439.609 21.8973 441.788 20.884C444.017 19.82 446.449 19.288 449.084 19.288Z" fill="black"/>
<path d="M152.797 107.217C151.205 107.217 149.779 106.959 148.519 106.442C147.258 105.925 146.245 105.161 145.481 104.148C144.737 103.135 144.344 101.916 144.303 100.49H149.945C150.027 101.296 150.306 101.916 150.782 102.35C151.257 102.763 151.877 102.97 152.642 102.97C153.427 102.97 154.047 102.794 154.502 102.443C154.956 102.071 155.184 101.565 155.184 100.924C155.184 100.387 154.998 99.9423 154.626 99.591C154.274 99.2396 153.83 98.9503 153.293 98.723C152.776 98.4956 152.032 98.2373 151.061 97.948C149.655 97.514 148.508 97.08 147.62 96.646C146.731 96.212 145.966 95.5713 145.326 94.724C144.685 93.8766 144.365 92.771 144.365 91.407C144.365 89.3816 145.098 87.8006 146.566 86.664C148.033 85.5066 149.945 84.928 152.301 84.928C154.698 84.928 156.63 85.5066 158.098 86.664C159.565 87.8006 160.35 89.392 160.454 91.438H154.719C154.677 90.7353 154.419 90.1876 153.944 89.795C153.468 89.3816 152.859 89.175 152.115 89.175C151.474 89.175 150.957 89.3506 150.565 89.702C150.172 90.0326 149.976 90.5183 149.976 91.159C149.976 91.8616 150.306 92.4093 150.968 92.802C151.629 93.1946 152.662 93.6183 154.068 94.073C155.473 94.5483 156.61 95.003 157.478 95.437C158.366 95.871 159.131 96.5013 159.772 97.328C160.412 98.1546 160.733 99.219 160.733 100.521C160.733 101.761 160.412 102.887 159.772 103.9C159.152 104.913 158.242 105.719 157.044 106.318C155.845 106.917 154.429 107.217 152.797 107.217Z" fill="#414549"/>
<path d="M162.941 98.351C162.941 96.553 163.303 94.9823 164.026 93.639C164.77 92.2956 165.793 91.2623 167.095 90.539C168.418 89.8156 169.926 89.454 171.621 89.454C173.791 89.454 175.599 90.0223 177.046 91.159C178.513 92.2956 179.474 93.8973 179.929 95.964H174.287C173.812 94.6413 172.892 93.98 171.528 93.98C170.557 93.98 169.782 94.3623 169.203 95.127C168.624 95.871 168.335 96.9456 168.335 98.351C168.335 99.7563 168.624 100.841 169.203 101.606C169.782 102.35 170.557 102.722 171.528 102.722C172.892 102.722 173.812 102.061 174.287 100.738H179.929C179.474 102.763 178.513 104.355 177.046 105.512C175.579 106.669 173.77 107.248 171.621 107.248C169.926 107.248 168.418 106.886 167.095 106.163C165.793 105.44 164.77 104.406 164.026 103.063C163.303 101.72 162.941 100.149 162.941 98.351Z" fill="#414549"/>
<path d="M181.711 98.32C181.711 96.5426 182.041 94.9823 182.703 93.639C183.385 92.2956 184.304 91.2623 185.462 90.539C186.619 89.8156 187.911 89.454 189.337 89.454C190.556 89.454 191.62 89.702 192.53 90.198C193.46 90.694 194.173 91.345 194.669 92.151V89.702H199.97V107H194.669V104.551C194.152 105.357 193.429 106.008 192.499 106.504C191.589 107 190.525 107.248 189.306 107.248C187.9 107.248 186.619 106.886 185.462 106.163C184.304 105.419 183.385 104.375 182.703 103.032C182.041 101.668 181.711 100.097 181.711 98.32ZM194.669 98.351C194.669 97.0283 194.297 95.9846 193.553 95.22C192.829 94.4553 191.941 94.073 190.887 94.073C189.833 94.073 188.934 94.4553 188.19 95.22C187.466 95.964 187.105 96.9973 187.105 98.32C187.105 99.6426 187.466 100.697 188.19 101.482C188.934 102.247 189.833 102.629 190.887 102.629C191.941 102.629 192.829 102.247 193.553 101.482C194.297 100.717 194.669 99.6736 194.669 98.351Z" fill="#414549"/>
<path d="M214.345 89.516C216.37 89.516 217.982 90.1773 219.181 91.5C220.4 92.802 221.01 94.6 221.01 96.894V107H215.74V97.607C215.74 96.4496 215.44 95.5506 214.841 94.91C214.241 94.2693 213.435 93.949 212.423 93.949C211.41 93.949 210.604 94.2693 210.005 94.91C209.405 95.5506 209.106 96.4496 209.106 97.607V107H203.805V89.702H209.106V91.996C209.643 91.2313 210.366 90.632 211.276 90.198C212.185 89.7433 213.208 89.516 214.345 89.516Z" fill="#414549"/>
<path d="M241.555 107.217C239.509 107.217 237.628 106.742 235.913 105.791C234.218 104.84 232.864 103.518 231.852 101.823C230.86 100.108 230.364 98.1856 230.364 96.057C230.364 93.9283 230.86 92.0166 231.852 90.322C232.864 88.6273 234.218 87.3046 235.913 86.354C237.628 85.4033 239.509 84.928 241.555 84.928C243.601 84.928 245.471 85.4033 247.166 86.354C248.881 87.3046 250.224 88.6273 251.196 90.322C252.188 92.0166 252.684 93.9283 252.684 96.057C252.684 98.1856 252.188 100.108 251.196 101.823C250.204 103.518 248.86 104.84 247.166 105.791C245.471 106.742 243.601 107.217 241.555 107.217ZM241.555 102.381C243.291 102.381 244.675 101.802 245.709 100.645C246.763 99.4876 247.29 97.9583 247.29 96.057C247.29 94.135 246.763 92.6056 245.709 91.469C244.675 90.3116 243.291 89.733 241.555 89.733C239.798 89.733 238.393 90.3013 237.339 91.438C236.305 92.5746 235.789 94.1143 235.789 96.057C235.789 97.979 236.305 99.5186 237.339 100.676C238.393 101.813 239.798 102.381 241.555 102.381Z" fill="#414549"/>
<path d="M260.934 92.585C261.554 91.6343 262.329 90.8903 263.259 90.353C264.189 89.795 265.222 89.516 266.359 89.516V95.127H264.902C263.579 95.127 262.587 95.4163 261.926 95.995C261.264 96.553 260.934 97.545 260.934 98.971V107H255.633V89.702H260.934V92.585Z" fill="#414549"/>
<path d="M271.558 87.904C270.628 87.904 269.864 87.6353 269.264 87.098C268.686 86.54 268.396 85.858 268.396 85.052C268.396 84.2253 268.686 83.5433 269.264 83.006C269.864 82.448 270.628 82.169 271.558 82.169C272.468 82.169 273.212 82.448 273.79 83.006C274.39 83.5433 274.689 84.2253 274.689 85.052C274.689 85.858 274.39 86.54 273.79 87.098C273.212 87.6353 272.468 87.904 271.558 87.904ZM274.193 89.702V107H268.892V89.702H274.193Z" fill="#414549"/>
<path d="M284.607 89.454C285.826 89.454 286.891 89.702 287.8 90.198C288.73 90.694 289.443 91.345 289.939 92.151V89.702H295.24V106.969C295.24 108.56 294.92 109.997 294.279 111.278C293.659 112.58 292.698 113.613 291.396 114.378C290.115 115.143 288.513 115.525 286.591 115.525C284.028 115.525 281.951 114.915 280.36 113.696C278.769 112.497 277.859 110.865 277.632 108.798H282.871C283.036 109.459 283.429 109.976 284.049 110.348C284.669 110.741 285.434 110.937 286.343 110.937C287.438 110.937 288.306 110.617 288.947 109.976C289.608 109.356 289.939 108.354 289.939 106.969V104.52C289.422 105.326 288.709 105.987 287.8 106.504C286.891 107 285.826 107.248 284.607 107.248C283.181 107.248 281.889 106.886 280.732 106.163C279.575 105.419 278.655 104.375 277.973 103.032C277.312 101.668 276.981 100.097 276.981 98.32C276.981 96.5426 277.312 94.9823 277.973 93.639C278.655 92.2956 279.575 91.2623 280.732 90.539C281.889 89.8156 283.181 89.454 284.607 89.454ZM289.939 98.351C289.939 97.0283 289.567 95.9846 288.823 95.22C288.1 94.4553 287.211 94.073 286.157 94.073C285.103 94.073 284.204 94.4553 283.46 95.22C282.737 95.964 282.375 96.9973 282.375 98.32C282.375 99.6426 282.737 100.697 283.46 101.482C284.204 102.247 285.103 102.629 286.157 102.629C287.211 102.629 288.1 102.247 288.823 101.482C289.567 100.717 289.939 99.6736 289.939 98.351Z" fill="#414549"/>
<path d="M301.741 87.904C300.811 87.904 300.046 87.6353 299.447 87.098C298.868 86.54 298.579 85.858 298.579 85.052C298.579 84.2253 298.868 83.5433 299.447 83.006C300.046 82.448 300.811 82.169 301.741 82.169C302.65 82.169 303.394 82.448 303.973 83.006C304.572 83.5433 304.872 84.2253 304.872 85.052C304.872 85.858 304.572 86.54 303.973 87.098C303.394 87.6353 302.65 87.904 301.741 87.904ZM304.376 89.702V107H299.075V89.702H304.376Z" fill="#414549"/>
<path d="M318.758 89.516C320.783 89.516 322.395 90.1773 323.594 91.5C324.813 92.802 325.423 94.6 325.423 96.894V107H320.153V97.607C320.153 96.4496 319.853 95.5506 319.254 94.91C318.654 94.2693 317.848 93.949 316.836 93.949C315.823 93.949 315.017 94.2693 314.418 94.91C313.818 95.5506 313.519 96.4496 313.519 97.607V107H308.218V89.702H313.519V91.996C314.056 91.2313 314.779 90.632 315.689 90.198C316.598 89.7433 317.621 89.516 318.758 89.516Z" fill="#414549"/>
<path d="M328.052 98.32C328.052 96.5426 328.383 94.9823 329.044 93.639C329.726 92.2956 330.646 91.2623 331.803 90.539C332.961 89.8156 334.252 89.454 335.678 89.454C336.898 89.454 337.962 89.702 338.871 90.198C339.801 90.694 340.514 91.345 341.01 92.151V89.702H346.311V107H341.01V104.551C340.494 105.357 339.77 106.008 338.84 106.504C337.931 107 336.867 107.248 335.647 107.248C334.242 107.248 332.961 106.886 331.803 106.163C330.646 105.419 329.726 104.375 329.044 103.032C328.383 101.668 328.052 100.097 328.052 98.32ZM341.01 98.351C341.01 97.0283 340.638 95.9846 339.894 95.22C339.171 94.4553 338.282 94.073 337.228 94.073C336.174 94.073 335.275 94.4553 334.531 95.22C333.808 95.964 333.446 96.9973 333.446 98.32C333.446 99.6426 333.808 100.697 334.531 101.482C335.275 102.247 336.174 102.629 337.228 102.629C338.282 102.629 339.171 102.247 339.894 101.482C340.638 100.717 341.01 99.6736 341.01 98.351Z" fill="#414549"/>
<path d="M355.447 84.06V107H350.146V84.06H355.447Z" fill="#414549"/>
<path d="M25.2228 57.583C25.2229 56.9056 25.3568 56.2348 25.6169 55.6093C25.877 54.9837 26.258 54.4157 26.7382 53.9378C27.2184 53.4599 27.7883 53.0816 28.4151 52.8246C29.0419 52.5676 29.7133 52.4369 30.3908 52.44L38.9588 52.468C40.3249 52.468 41.6351 53.0107 42.6011 53.9767C43.5671 54.9427 44.1098 56.2529 44.1098 57.619V90.0191C45.0748 89.7331 46.3098 89.428 47.6688 89.108C48.6103 88.8865 49.4494 88.3535 50.05 87.5953C50.6506 86.8371 50.9776 85.8983 50.9778 84.931V44.744C50.9778 43.3778 51.5204 42.0675 52.4864 41.1014C53.4524 40.1352 54.7626 39.5923 56.1288 39.592H64.7228C66.089 39.5923 67.3992 40.1352 68.3651 41.1014C69.3311 42.0675 69.8738 43.3778 69.8738 44.744V82.044C69.8738 82.044 72.0238 81.174 74.1168 80.29C74.8945 79.9611 75.5582 79.4104 76.025 78.7067C76.4918 78.003 76.7411 77.1775 76.7418 76.333V31.866C76.7418 30.5001 77.2843 29.1901 78.2501 28.2241C79.2159 27.2581 80.5258 26.7153 81.8918 26.715H90.4768C91.842 26.7164 93.1509 27.2596 94.1158 28.2255C95.0808 29.1914 95.6228 30.5008 95.6228 31.866V68.483C103.066 63.089 110.609 56.601 116.595 48.8C117.463 47.6677 118.038 46.338 118.268 44.9295C118.497 43.521 118.375 42.0776 117.911 40.728C115.14 32.7562 110.735 25.4505 104.979 19.2786C99.2225 13.1067 92.241 8.20438 84.4813 4.88543C76.7216 1.56649 68.3544 -0.0960273 59.9153 0.00428347C51.4762 0.104594 43.1509 1.96552 35.4723 5.46797C27.7936 8.97042 20.9307 14.0373 15.3226 20.3443C9.71457 26.6513 5.48488 34.0596 2.90423 42.0951C0.323578 50.1305 -0.551199 58.6163 0.33587 67.0093C1.22294 75.4022 3.85232 83.5176 8.05576 90.836C8.7881 92.0985 9.86553 93.1258 11.1615 93.7972C12.4574 94.4685 13.918 94.7561 15.3718 94.626C16.9958 94.483 19.0178 94.281 21.4218 93.999C22.468 93.88 23.434 93.3803 24.1356 92.5951C24.8373 91.8099 25.2257 90.7941 25.2268 89.741V57.583" fill="#12161C"/>
<path d="M25.0391 109.544C34.0883 116.127 44.7823 120.079 55.9379 120.961C67.0934 121.844 78.2758 119.623 88.2476 114.545C98.2195 109.467 106.592 101.729 112.439 92.1878C118.286 82.6465 121.38 71.6735 121.378 60.4831C121.378 59.0831 121.313 57.7051 121.22 56.3311C99.057 89.3861 58.1351 104.839 25.0391 109.544Z" fill="#F0B90B"/>
</svg>
